<svg id="Layer_1" data-name="Layer 1" xmlns="http://www.w3.org/2000/svg" viewBox="0 0 400 116.34"><defs><style>.cls-1{fill:#fff;}</style></defs><title>argusd</title><path class="cls-1" d="M38.74,20.71H50.92L76.66,81.2H62.85L57.36,67.73H32L26.47,81.2H13Zm13.9,35.35-8-19.48-8,19.48Z"/><path class="cls-1" d="M85.93,21.14h27.46q11.4,0,17.5,6.09Q136,32.38,136,41v.17q0,7.29-3.56,11.88a20.69,20.69,0,0,1-9.31,6.74L137.84,81.2H122.39L109.52,62H99.14V81.2H85.93Zm26.6,29.17q4.89,0,7.5-2.32a7.82,7.82,0,0,0,2.62-6.18v-.17q0-4.29-2.74-6.43t-7.64-2.15H99.14V50.31Z"/><path class="cls-1" d="M176.88,82.23a34.35,34.35,0,0,1-12.83-2.32,29.56,29.56,0,0,1-10-6.44,28.83,28.83,0,0,1-6.48-9.78,32.18,32.18,0,0,1-2.32-12.35v-.17a30.71,30.71,0,0,1,18.88-28.62,31.86,31.86,0,0,1,12.61-2.44,44.59,44.59,0,0,1,7.34.55,36.35,36.35,0,0,1,6.13,1.59,28.76,28.76,0,0,1,5.32,2.58,39.57,39.57,0,0,1,4.81,3.51l-8.33,10a33.28,33.28,0,0,0-3.43-2.57,22.12,22.12,0,0,0-3.56-1.89,21.61,21.61,0,0,0-4-1.2,23.78,23.78,0,0,0-4.72-.43,15.22,15.22,0,0,0-6.73,1.51,18.09,18.09,0,0,0-5.49,4,18.32,18.32,0,0,0-3.69,5.93A19.72,19.72,0,0,0,159.12,51v.17a21.09,21.09,0,0,0,1.33,7.61,18,18,0,0,0,3.77,6.06,17.26,17.26,0,0,0,5.75,4,18.34,18.34,0,0,0,7.34,1.42,20.82,20.82,0,0,0,12.44-3.63V58h-13.3V46.62h26.08V72.7a44.07,44.07,0,0,1-11,6.74A36.29,36.29,0,0,1,176.88,82.23Z"/><path class="cls-1" d="M240.28,82.14q-12.09,0-19.05-6.69t-6.95-20V21.14H227.5v34q0,7.38,3.43,11.11T240.45,70q6.09,0,9.53-3.61t3.43-10.81V21.14h13.21V55A34.8,34.8,0,0,1,264.78,67a22.36,22.36,0,0,1-5.28,8.45,21.68,21.68,0,0,1-8.32,5.07A33.65,33.65,0,0,1,240.28,82.14Z"/><path class="cls-1" d="M301.54,82.05a39.65,39.65,0,0,1-13.47-2.36,35.61,35.61,0,0,1-12-7.25l7.81-9.35a38.85,38.85,0,0,0,8.45,5.32,22.55,22.55,0,0,0,9.48,2,11.44,11.44,0,0,0,6.39-1.51,4.71,4.71,0,0,0,2.28-4.16v-.17a5.12,5.12,0,0,0-.48-2.27,4.76,4.76,0,0,0-1.8-1.85,19.22,19.22,0,0,0-3.7-1.71,62.33,62.33,0,0,0-6.15-1.81,75.14,75.14,0,0,1-8.26-2.48A23.47,23.47,0,0,1,283.8,51a13.72,13.72,0,0,1-4-5,17.37,17.37,0,0,1-1.42-7.47v-.17A17.46,17.46,0,0,1,279.91,31a17,17,0,0,1,4.31-5.71,19.15,19.15,0,0,1,6.61-3.68,26.56,26.56,0,0,1,8.48-1.29,36,36,0,0,1,12.14,2,35.54,35.54,0,0,1,10.17,5.66l-6.86,10a43.6,43.6,0,0,0-7.9-4.34A20.31,20.31,0,0,0,299.14,32q-3.86,0-5.79,1.5a4.54,4.54,0,0,0-1.93,3.73v.17a5.28,5.28,0,0,0,.56,2.53,5,5,0,0,0,2,1.93,18.32,18.32,0,0,0,4,1.63q2.53.78,6.41,1.81a61.42,61.42,0,0,1,8.13,2.7,22.77,22.77,0,0,1,6,3.6,13.77,13.77,0,0,1,3.7,4.94,16.7,16.7,0,0,1,1.25,6.77v.18a18.57,18.57,0,0,1-1.62,7.93,16.37,16.37,0,0,1-4.52,5.84,20.4,20.4,0,0,1-6.92,3.6A30,30,0,0,1,301.54,82.05Z"/><path class="cls-1" d="M335,21.14h23.43a35.41,35.41,0,0,1,12.91,2.27,30.49,30.49,0,0,1,10.12,6.31A28.09,28.09,0,0,1,388,39.2,29.88,29.88,0,0,1,390.35,51v.18A30.23,30.23,0,0,1,388,63a28,28,0,0,1-6.57,9.52,31.07,31.07,0,0,1-10.12,6.35,35,35,0,0,1-12.91,2.32H335Zm23.43,48.13A20.35,20.35,0,0,0,365.81,68a15.73,15.73,0,0,0,5.7-3.69,17.44,17.44,0,0,0,3.69-5.66,19.05,19.05,0,0,0,1.33-7.29v-.17a19.54,19.54,0,0,0-1.33-7.3,17.32,17.32,0,0,0-3.69-5.75,16.36,16.36,0,0,0-5.7-3.73,19.94,19.94,0,0,0-7.38-1.33H348.22V69.27Z"/></svg>